# xmcd
# 
# Track frame offsets:
#     150
#     54557
#     97666
#     148928
#     197136
#     250448
#     279915
# 
# Disc length: 4010
# 
# Revision: 0
# Processed by: cddbd v1.5.2PL0 Copyright (c) Steve Scherf et al.
# Submitted via: fre:ac v1.0.17
# 
DISCID=620fa807
DTITLE=The Destroyer - High Priestess 02
DYEAR=0
DGENRE=Audio Book
TTITLE0=High Priestess 02
TTITLE1=High Priestess 02
TTITLE2=High Priestess 02
TTITLE3=High Priestess 02
TTITLE4=High Priestess 02
TTITLE5=High Priestess 02
TTITLE6=High Priestess 02
EXTD=
EXTT0=
EXTT1=
EXTT2=
EXTT3=
EXTT4=
EXTT5=
EXTT6=
PLAYORDER=
